<svg xmlns="http://www.w3.org/2000/svg" viewBox="0 0 512 512">
  <defs>
    <linearGradient id="grad1" x1="0%" y1="0%" x2="100%" y2="100%">
      <stop offset="0%" style="stop-color:#ea580c;stop-opacity:1" />
      <stop offset="100%" style="stop-color:#c2410c;stop-opacity:1" />
    </linearGradient>
  </defs>
  <path fill="url(#grad1)" d="M106.3 43.6a17.3 17.3 0 0 0-20.7 2.1l-66.4 69.3a17.3 17.3 0 0 0-4.6 15.6l23.1 93.4a17.3 17.3 0 0 0 8.8 11.5l140.6 70.3a17.3 17.3 0 0 0 15.6 0l139.7-69.8a17.3 17.3 0 0 0 8.9-11.4l23.7-93.5a17.3 17.3 0 0 0-4.4-15.7l-65.7-69.3a17.3 17.3 0 0 0-20.7-2.3l-83.3 53.6-83.3-53.6z"/>
  <path fill="#fff" d="M166.3 183.6c-13.8 0-25-11.2-25-25s11.2-25 25-25 25 11.2 25 25-11.2 25-25 25zm179.4 0c-13.8 0-25-11.2-25-25s11.2-25 25-25 25 11.2 25 25-11.2 25-25 25z"/>
  <path fill="#020617" d="M256 312c-26.5 0-48-21.5-48-48h96c0 26.5-21.5 48-48 48z"/>
</svg>
